HIERARCHY
ROOT Hips
{
	OFFSET 0.000003 96.368652 -0.035689
	CHANNELS 6 Xposition Yposition Zposition Xrotation Yrotation Zrotation
	JOINT Spine
	{
		OFFSET 0.000010 9.226303 1.577100
		CHANNELS 6 Xposition Yposition Zposition Xrotation Yrotation Zrotation
		JOINT Spine1
		{
			OFFSET 0.000000 16.253998 -0.165600
			CHANNELS 6 Xposition Yposition Zposition Xrotation Yrotation Zrotation
			JOINT Spine2
			{
				OFFSET -0.000000 13.639587 -1.292299
				CHANNELS 6 Xposition Yposition Zposition Xrotation Yrotation Zrotation
				JOINT Neck
				{
					OFFSET 0.000000 13.877411 -4.354199
					CHANNELS 6 Xposition Yposition Zposition Xrotation Yrotation Zrotation
					JOINT Neck1
					{
						OFFSET 0.000000 4.339996 0.926899
						CHANNELS 6 Xposition Yposition Zposition Xrotation Yrotation Zrotation
						JOINT Head
						{
							OFFSET 0.000000 4.026611 0.858500
							CHANNELS 6 Xposition Yposition Zposition Xrotation Yrotation Zrotation
							JOINT HeadTop_End
							{
								OFFSET 0.000000 21.748810 0.000000
								CHANNELS 6 Xposition Yposition Zposition Xrotation Yrotation Zrotation
								End Site
								{
									OFFSET 0.000000 11.825378 0.000000
								}
							}
							JOINT L_Eye
							{
								OFFSET 3.005700 7.261795 7.955601
								CHANNELS 6 Xposition Yposition Zposition Xrotation Yrotation Zrotation
								End Site
								{
									OFFSET 0.000000 11.825378 0.000000
								}
							}
							JOINT R_Eye
							{
								OFFSET -3.005700 7.261795 7.955601
								CHANNELS 6 Xposition Yposition Zposition Xrotation Yrotation Zrotation
								End Site
								{
									OFFSET 0.000000 11.825378 0.000000
								}
							}
							JOINT Jaw
							{
								OFFSET 0.000000 2.030289 2.456200
								CHANNELS 6 Xposition Yposition Zposition Xrotation Yrotation Zrotation
								End Site
								{
									OFFSET 0.000000 11.825378 0.000000
								}
							}
						}
					}
				}
				JOINT L_Shoulder
				{
					OFFSET 6.144200 10.187012 -3.793198
					CHANNELS 6 Xposition Yposition Zposition Xrotation Yrotation Zrotation
					JOINT L_Arm
					{
						OFFSET 12.319103 -1.112991 -1.793500
						CHANNELS 3 Xrotation Yrotation Zrotation
						JOINT L_ForeArm
						{
							OFFSET 27.687006 -0.000015 -0.000000
							CHANNELS 3 Xrotation Yrotation Zrotation
							JOINT L_Hand
							{
								OFFSET 27.873787 0.000031 -0.000000
								CHANNELS 3 Xrotation Yrotation Zrotation
								JOINT L_HandThumb1
								{
									OFFSET 2.421021 -1.395554 2.392360
									CHANNELS 6 Xposition Yposition Zposition Xrotation Yrotation Zrotation
									JOINT L_HandThumb2
									{
										OFFSET 3.496521 -2.018692 2.018717
										CHANNELS 6 Xposition Yposition Zposition Xrotation Yrotation Zrotation
										JOINT L_HandThumb3
										{
											OFFSET 4.011398 -2.315994 2.315975
											CHANNELS 6 Xposition Yposition Zposition Xrotation Yrotation Zrotation
											JOINT L_HandThumb4
											{
												OFFSET 2.095787 -1.210007 1.209984
												CHANNELS 6 Xposition Yposition Zposition Xrotation Yrotation Zrotation
												End Site
												{
													OFFSET 1.877617 -1.197205 1.536803
												}
											}
										}
									}
								}
								JOINT L_HandIndex1
								{
									OFFSET 10.514771 -0.231369 2.264849
									CHANNELS 6 Xposition Yposition Zposition Xrotation Yrotation Zrotation
									JOINT L_HandIndex2
									{
										OFFSET 5.549301 0.000000 0.000000
										CHANNELS 3 Xrotation Yrotation Zrotation
										JOINT L_HandIndex3
										{
											OFFSET 3.391098 0.000000 0.000001
											CHANNELS 3 Xrotation Yrotation Zrotation
											JOINT L_HandIndex4
											{
												OFFSET 2.334351 0.000000 0.000011
												CHANNELS 6 Xposition Yposition Zposition Xrotation Yrotation Zrotation
												End Site
												{
													OFFSET 2.334351 0.000000 0.000101
												}
											}
										}
									}
								}
								JOINT L_HandMiddle1
								{
									OFFSET 10.490761 -0.000015 0.000002
									CHANNELS 6 Xposition Yposition Zposition Xrotation Yrotation Zrotation
									JOINT L_HandMiddle2
									{
										OFFSET 5.792099 0.000000 0.000000
										CHANNELS 3 Xrotation Yrotation Zrotation
										JOINT L_HandMiddle3
										{
											OFFSET 3.713196 0.000000 0.000000
											CHANNELS 3 Xrotation Yrotation Zrotation
											JOINT L_HandMiddle4
											{
												OFFSET 2.752045 -0.000031 0.000022
												CHANNELS 6 Xposition Yposition Zposition Xrotation Yrotation Zrotation
												End Site
												{
													OFFSET 2.752045 0.000031 -0.003599
												}
											}
										}
									}
								}
								JOINT L_HandRing1
								{
									OFFSET 10.240753 -0.046051 -2.314147
									CHANNELS 6 Xposition Yposition Zposition Xrotation Yrotation Zrotation
									JOINT L_HandRing2
									{
										OFFSET 5.445206 -0.000015 0.000676
										CHANNELS 3 Xrotation Yrotation Zrotation
										JOINT L_HandRing3
										{
											OFFSET 3.713196 0.000015 -0.000674
											CHANNELS 3 Xrotation Yrotation Zrotation
											JOINT L_HandRing4
											{
												OFFSET 2.280716 0.000000 -0.000046
												CHANNELS 3 Xrotation Yrotation Zrotation
												End Site
												{
													OFFSET 2.280716 -0.000061 0.003501
												}
											}
										}
									}
								}
								JOINT L_HandPinky1
								{
									OFFSET 9.820259 -0.209747 -4.418469
									CHANNELS 6 Xposition Yposition Zposition Xrotation Yrotation Zrotation
									JOINT L_HandPinky2
									{
										OFFSET 3.676300 0.000000 0.000000
										CHANNELS 3 Xrotation Yrotation Zrotation
										JOINT L_HandPinky3
										{
											OFFSET 2.811295 0.000000 0.000001
											CHANNELS 3 Xrotation Yrotation Zrotation
											JOINT L_HandPinky4
											{
												OFFSET 1.659546 0.000000 0.000000
												CHANNELS 3 Xrotation Yrotation Zrotation
												End Site
												{
													OFFSET 1.659546 0.000015 -0.001891
												}
											}
										}
									}
								}
							}
						}
					}
				}
				JOINT R_Shoulder
				{
					OFFSET -6.140200 10.187012 -3.793198
					CHANNELS 6 Xposition Yposition Zposition Xrotation Yrotation Zrotation
					JOINT R_Arm
					{
						OFFSET -12.323095 -1.113007 -1.793499
						CHANNELS 3 Xrotation Yrotation Zrotation
						JOINT R_ForeArm
						{
							OFFSET -27.687002 0.000015 -0.000002
							CHANNELS 3 Xrotation Yrotation Zrotation
							JOINT R_Hand
							{
								OFFSET -27.873795 -0.000015 0.000000
								CHANNELS 3 Xrotation Yrotation Zrotation
								JOINT R_HandPinky1
								{
									OFFSET -9.791023 -0.212921 -4.378341
									CHANNELS 6 Xposition Yposition Zposition Xrotation Yrotation Zrotation
									JOINT R_HandPinky2
									{
										OFFSET -3.652802 0.000000 0.000000
										CHANNELS 3 Xrotation Yrotation Zrotation
										JOINT R_HandPinky3
										{
											OFFSET -2.781998 0.000000 0.000000
											CHANNELS 3 Xrotation Yrotation Zrotation
											JOINT R_HandPinky4
											{
												OFFSET -1.612122 0.000198 0.000004
												CHANNELS 3 Xrotation Yrotation Zrotation
												End Site
												{
													OFFSET -1.612106 0.000320 -0.007100
												}
											}
										}
									}
								}
								JOINT R_HandRing1
								{
									OFFSET -10.391914 0.105164 -2.349891
									CHANNELS 6 Xposition Yposition Zposition Xrotation Yrotation Zrotation
									JOINT R_HandRing2
									{
										OFFSET -5.401306 0.000000 0.000000
										CHANNELS 3 Xrotation Yrotation Zrotation
										JOINT R_HandRing3
										{
											OFFSET -3.391602 0.000000 0.000000
											CHANNELS 3 Xrotation Yrotation Zrotation
											JOINT R_HandRing4
											{
												OFFSET -2.353172 0.000305 -0.000032
												CHANNELS 3 Xrotation Yrotation Zrotation
												End Site
												{
													OFFSET -2.353180 0.000275 0.001400
												}
											}
										}
									}
								}
								JOINT R_HandMiddle1
								{
									OFFSET -10.779236 0.000000 0.000001
									CHANNELS 6 Xposition Yposition Zposition Xrotation Yrotation Zrotation
									JOINT R_HandMiddle2
									{
										OFFSET -5.616806 0.000000 0.000000
										CHANNELS 3 Xrotation Yrotation Zrotation
										JOINT R_HandMiddle3
										{
											OFFSET -3.736397 0.000000 0.000000
											CHANNELS 3 Xrotation Yrotation Zrotation
											JOINT R_HandMiddle4
											{
												OFFSET -2.691521 0.000336 -0.000028
												CHANNELS 3 Xrotation Yrotation Zrotation
												End Site
												{
													OFFSET -2.691513 0.000214 0.009200
												}
											}
										}
									}
								}
								JOINT R_HandIndex1
								{
									OFFSET -10.577324 -0.175369 2.287349
									CHANNELS 6 Xposition Yposition Zposition Xrotation Yrotation Zrotation
									JOINT R_HandIndex2
									{
										OFFSET -5.376801 0.000000 0.000001
										CHANNELS 3 Xrotation Yrotation Zrotation
										JOINT R_HandIndex3
										{
											OFFSET -3.385498 0.000000 0.000001
											CHANNELS 3 Xrotation Yrotation Zrotation
											JOINT R_HandIndex4
											{
												OFFSET -2.363556 0.000305 0.000042
												CHANNELS 3 Xrotation Yrotation Zrotation
												End Site
												{
													OFFSET -2.363548 0.000381 -0.006501
												}
											}
										}
									}
								}
								JOINT R_HandThumb1
								{
									OFFSET -2.570442 -1.245102 2.319054
									CHANNELS 6 Xposition Yposition Zposition Xrotation Yrotation Zrotation
									JOINT R_HandThumb2
									{
										OFFSET -3.518791 -2.031555 2.031563
										CHANNELS 6 Xposition Yposition Zposition Xrotation Yrotation Zrotation
										JOINT R_HandThumb3
										{
											OFFSET -3.945267 -2.277756 2.277756
											CHANNELS 6 Xposition Yposition Zposition Xrotation Yrotation Zrotation
											JOINT R_HandThumb4
											{
												OFFSET -2.055496 -1.186386 1.186664
												CHANNELS 3 Xrotation Yrotation Zrotation
												End Site
												{
													OFFSET -1.840202 -1.174805 1.508071
												}
											}
										}
									}
								}
							}
						}
					}
				}
			}
		}
	}
	JOINT L_UpLeg
	{
		OFFSET 9.633796 -3.273308 -0.000000
		CHANNELS 6 Xposition Yposition Zposition Xrotation Yrotation Zrotation
		JOINT L_Leg
		{
			OFFSET -0.006490 -41.762173 -0.553830
			CHANNELS 3 Xrotation Yrotation Zrotation
			JOINT L_Foot
			{
				OFFSET 0.006493 -39.146984 -2.021915
				CHANNELS 3 Xrotation Yrotation Zrotation
				JOINT L_ToeBase
				{
					OFFSET -0.183300 -12.185708 8.282301
					CHANNELS 6 Xposition Yposition Zposition Xrotation Yrotation Zrotation
					JOINT L_Toe_End
					{
						OFFSET -0.094684 -0.116787 6.663326
						CHANNELS 3 Xrotation Yrotation Zrotation
						End Site
						{
							OFFSET -0.094684 -0.116787 6.663328
						}
					}
				}
			}
		}
	}
	JOINT R_UpLeg
	{
		OFFSET -9.633803 -3.273293 0.000000
		CHANNELS 6 Xposition Yposition Zposition Xrotation Yrotation Zrotation
		JOINT R_Leg
		{
			OFFSET -0.006491 -41.762146 -0.555884
			CHANNELS 3 Xrotation Yrotation Zrotation
			JOINT R_Foot
			{
				OFFSET 0.006493 -39.147087 -2.019920
				CHANNELS 3 Xrotation Yrotation Zrotation
				JOINT R_ToeBase
				{
					OFFSET -0.183299 -12.185700 8.282300
					CHANNELS 6 Xposition Yposition Zposition Xrotation Yrotation Zrotation
					JOINT R_Toe_End
					{
						OFFSET 0.094687 -0.116863 6.675869
						CHANNELS 3 Xrotation Yrotation Zrotation
						End Site
						{
							OFFSET 0.094687 -0.116863 6.675869
						}
					}
				}
			}
		}
	}
}
MOTION
Frames: 4
Frame Time: 0.033333
4.484249 83.984375 -2.258262 2.833315 -38.411348 5.600292 0.000010 9.226302 1.577100 5.084433 -4.850750 -2.818128 0.000002 16.254004 -0.165603 10.955472 5.565019 5.685992 -0.000000 13.639586 -1.292297 10.082525 6.393622 5.981105 -0.000003 13.877411 -4.354204 -4.133879 -0.132663 0.476740 -0.000002 4.339996 0.926904 -0.000001 0.000000 -0.000001 0.000002 4.026624 0.858507 -2.123946 17.786084 -16.681386 0.000003 21.748825 0.000001 0.000001 0.000000 -0.000001 3.005704 7.261795 7.955603 0.000001 0.000000 -0.000001 -3.005696 7.261810 7.955600 0.000001 0.000000 -0.000001 0.000005 2.030304 2.456199 0.000001 0.000000 -0.000001 6.144194 10.186969 -3.793200 -2.362959 -24.129861 -5.538224 -47.916188 -2.064881 -54.168690 -88.025859 25.720228 -83.977340 -30.831105 -5.118496 4.558314 2.421029 -1.395563 2.392357 0.699331 9.503622 -2.418278 3.496512 -2.018683 2.018733 5.975151 12.647545 1.348421 4.011405 -2.315988 2.315971 -23.873536 -17.664345 1.604728 2.095789 -1.210001 1.209981 -0.000000 0.000004 0.000009 10.514781 -0.231370 2.264844 9.479740 -1.289617 -20.785565 0.709570 2.796653 -28.467066 0.714076 2.804992 -28.559715 2.334336 0.000015 0.000009 -0.000002 0.000000 -0.000000 10.490755 -0.000023 -0.000008 10.058213 -1.800416 -20.644733 1.774407 4.200799 -45.782031 1.632370 4.058103 -43.809479 2.752051 -0.000047 0.000019 -0.000002 -0.000001 0.000000 10.240764 -0.046061 -2.314151 1.256446 -0.066874 -17.945579 3.744569 5.453190 -68.964222 5.298031 9.647987 -33.747610 0.000003 0.000003 -0.000003 9.820263 -0.209748 -4.418468 -7.938257 1.609124 -6.495674 2.210745 4.583967 -51.475212 0.883929 3.096300 -31.858048 -0.000001 -0.000002 -0.000001 -6.140207 10.187005 -3.793199 -1.438149 -6.310840 -0.474926 -14.675187 54.053878 43.159211 46.376250 123.080992 -53.498126 -7.324995 -5.130458 -8.892217 -9.791025 -0.212918 -4.378346 -17.635711 -10.496856 3.325316 4.994429 -4.645739 94.147908 3.647990 -4.547216 77.470676 0.000001 0.000000 -0.000000 -10.391910 0.105167 -2.349904 -12.155613 -12.624067 9.228218 6.567916 -4.249047 114.232291 3.754924 -4.569724 78.826913 -0.000000 0.000000 0.000003 -10.779235 -0.000006 -0.000011 3.764104 -12.080558 1.143659 5.715112 -4.536478 103.133480 3.160411 -4.411120 71.242070 0.000000 -0.000001 -0.000000 -10.577315 -0.175346 2.287337 0.357658 -5.832724 5.175784 0.094410 -0.933786 11.539971 0.778278 -2.579722 33.567265 0.000000 0.000000 -0.000000 -2.570432 -1.245107 2.319042 13.942825 -4.273823 -5.299952 -3.518805 -2.031540 2.031560 7.113130 -20.767603 -2.619652 -3.945248 -2.277738 2.277746 -3.460504 -24.899371 -18.653807 -0.000002 0.000002 0.000001 9.633794 -3.273307 -0.000002 -35.786209 10.567792 2.124249 59.768540 -7.123848 -10.290664 -21.187339 -0.025681 12.636672 -0.183301 -12.185707 8.282299 -9.715073 2.014854 1.408867 0.000000 -0.000000 -0.000000 -9.633805 -3.273306 0.000003 -34.734647 2.566392 -14.364590 78.474974 2.690044 -8.403739 -22.368574 -0.832685 -9.125887 -0.183299 -12.185701 8.282300 -0.424965 4.019738 2.682140 -0.000003 -0.000003 0.000001 
4.188932 83.057472 -1.815611 3.237204 -40.452110 5.751978 0.000010 9.226314 1.577101 4.320309 -4.008206 -2.653172 0.000000 16.253996 -0.165601 11.207397 5.674265 5.828127 0.000001 13.639592 -1.292303 10.316174 6.509849 6.145569 0.000006 13.877393 -4.354195 -3.992726 0.160258 0.479756 0.000004 4.339981 0.926901 -0.000003 -0.000003 -0.000001 0.000001 4.026612 0.858504 -1.849614 18.454922 -17.346027 0.000001 21.748779 0.000005 -0.000001 0.000001 0.000000 3.005702 7.261780 7.955603 -0.000001 0.000001 0.000000 -3.005697 7.261780 7.955604 -0.000001 0.000001 0.000000 -0.000001 2.030258 2.456204 -0.000001 0.000001 0.000000 6.144202 10.186999 -3.793195 -2.649039 -22.577721 -5.467747 -47.262689 -1.641184 -55.817863 -88.255722 25.444429 -83.252008 -30.841115 -4.432707 3.800719 2.421025 -1.395564 2.392354 0.699330 9.503620 -2.418280 3.496519 -2.018653 2.018715 5.975147 12.647539 1.348418 4.011403 -2.315983 2.315973 -23.873540 -17.664345 1.604729 2.095786 -1.210023 1.209980 0.000001 0.000003 0.000004 10.514785 -0.231370 2.264843 9.479740 -1.289614 -20.785565 0.709570 2.796654 -28.467071 0.714079 2.804994 -28.559715 2.334349 0.000016 0.000012 0.000001 -0.000001 0.000001 10.490755 -0.000021 -0.000008 10.058212 -1.800418 -20.644735 1.774408 4.200797 -45.782031 1.632369 4.058104 -43.809479 2.752058 -0.000063 0.000029 -0.000006 0.000000 0.000001 10.240765 -0.046057 -2.314151 1.256444 -0.066877 -17.945579 3.744568 5.453194 -68.964222 5.298034 9.647988 -33.747606 -0.000000 0.000001 0.000003 9.820258 -0.209749 -4.418470 -7.938256 1.609120 -6.495675 2.210746 4.583967 -51.475222 0.883930 3.096300 -31.858045 -0.000001 -0.000001 0.000003 -6.140200 10.186983 -3.793191 -1.597301 -5.671091 -0.483178 -14.222534 54.586896 43.857690 50.458217 126.256265 -57.937442 -2.089683 -5.857799 -7.333858 -9.791024 -0.212899 -4.378337 -17.635709 -10.496855 3.325316 4.994428 -4.645738 94.147915 3.647990 -4.547217 77.470676 -0.000002 0.000001 -0.000000 -10.391912 0.105184 -2.349895 -12.155612 -12.624066 9.228221 6.567917 -4.249048 114.232284 3.754924 -4.569724 78.826920 0.000001 -0.000002 -0.000001 -10.779234 -0.000007 -0.000002 3.764104 -12.080557 1.143658 5.715113 -4.536476 103.133486 3.160410 -4.411121 71.242070 -0.000000 -0.000000 0.000000 -10.577323 -0.175360 2.287354 0.357657 -5.832724 5.175784 0.094411 -0.933788 11.539971 0.778278 -2.579721 33.567265 -0.000001 -0.000001 -0.000000 -2.570430 -1.245110 2.319043 13.942825 -4.273824 -5.299955 -3.518820 -2.031547 2.031561 7.113129 -20.767603 -2.619651 -3.945271 -2.277754 2.277755 -3.460503 -24.899371 -18.653802 -0.000003 0.000006 0.000001 9.633798 -3.273300 0.000004 -41.049437 8.485998 5.529319 62.105428 -6.506699 -10.404052 -18.837003 1.557761 9.308229 -0.183302 -12.185707 8.282297 -9.715061 2.014816 1.408864 0.000000 -0.000005 -0.000001 -9.633808 -3.273291 0.000002 -26.222075 3.728675 -19.749878 76.936952 5.389062 -10.452135 -19.900550 -0.383150 -9.403036 -0.183299 -12.185701 8.282302 -0.746314 2.966266 0.965913 -0.000000 -0.000001 -0.000002 
3.817886 81.859619 -1.449392 3.628821 -42.412709 5.861981 0.000010 9.226299 1.577100 3.646999 -3.194409 -2.294449 0.000002 16.254004 -0.165599 11.328146 5.735914 5.811797 0.000003 13.639589 -1.292305 10.436949 6.560362 6.142632 -0.000002 13.877395 -4.354195 -3.745145 0.441170 0.485642 0.000002 4.339996 0.926899 -0.000002 0.000001 -0.000001 0.000006 4.026609 0.858496 -1.500308 19.052835 -17.793169 0.000001 21.748795 0.000003 -0.000000 0.000001 0.000000 3.005700 7.261795 7.955606 -0.000000 0.000001 0.000000 -3.005700 7.261780 7.955603 -0.000000 0.000001 0.000000 -0.000002 2.030258 2.456205 -0.000000 0.000001 0.000000 6.144200 10.186995 -3.793200 -2.932736 -21.076447 -5.389955 -46.542606 -1.105234 -57.193815 -88.302277 25.276609 -83.057300 -30.757414 -4.033595 3.688656 2.421022 -1.395578 2.392362 0.699331 9.503615 -2.418279 3.496511 -2.018675 2.018718 5.975154 12.647542 1.348418 4.011409 -2.315979 2.315984 -23.873541 -17.664345 1.604726 2.095789 -1.210023 1.209971 0.000004 -0.000003 0.000006 10.514777 -0.231385 2.264851 9.479739 -1.289620 -20.785565 0.709568 2.796656 -28.467071 0.714079 2.804989 -28.559715 2.334336 0.000015 0.000008 -0.000002 -0.000000 -0.000000 10.490763 -0.000035 0.000002 10.058209 -1.800419 -20.644733 1.774407 4.200796 -45.782027 1.632370 4.058103 -43.809479 2.752049 -0.000043 0.000024 -0.000001 -0.000000 0.000001 10.240761 -0.046058 -2.314148 1.256440 -0.066881 -17.945579 3.744567 5.453196 -68.964229 5.298036 9.647986 -33.747606 0.000004 0.000001 0.000000 9.820255 -0.209766 -4.418460 -7.938256 1.609116 -6.495676 2.210745 4.583968 -51.475215 0.883929 3.096300 -31.858048 0.000000 0.000002 0.000000 -6.140201 10.186987 -3.793200 -1.742052 -5.100652 -0.488663 -14.331228 54.834671 44.302963 48.978685 124.231756 -56.804580 -4.167910 -6.397919 -6.842380 -9.791020 -0.212920 -4.378347 -17.635712 -10.496855 3.325318 4.994427 -4.645740 94.147908 3.647990 -4.547219 77.470676 -0.000001 0.000000 0.000000 -10.391910 0.105182 -2.349892 -12.155611 -12.624065 9.228218 6.567913 -4.249048 114.232291 3.754924 -4.569724 78.826913 -0.000002 0.000000 -0.000003 -10.779234 -0.000007 0.000000 3.764104 -12.080558 1.143658 5.715112 -4.536477 103.133480 3.160411 -4.411121 71.242070 0.000000 -0.000000 0.000000 -10.577325 -0.175347 2.287342 0.357658 -5.832722 5.175784 0.094410 -0.933787 11.539973 0.778277 -2.579722 33.567265 0.000000 -0.000000 0.000001 -2.570431 -1.245106 2.319052 13.942822 -4.273823 -5.299956 -3.518813 -2.031555 2.031559 7.113132 -20.767607 -2.619651 -3.945256 -2.277754 2.277745 -3.460503 -24.899371 -18.653805 -0.000002 0.000006 -0.000001 9.633794 -3.273307 0.000000 -45.754208 5.700644 8.904511 63.912355 -5.948658 -10.476173 -16.048493 3.073635 5.576912 -0.183301 -12.185705 8.282299 -9.715064 2.014774 1.408851 -0.000000 0.000000 0.000000 -9.633804 -3.273292 0.000002 -16.738849 3.467622 -25.173063 70.126058 8.576175 -11.842272 -14.747451 1.995300 -9.216225 -0.183304 -12.185697 8.282303 -2.823880 0.082770 1.532432 0.000001 -0.000000 -0.000003 
3.411343 80.953972 -1.090399 3.988233 -44.210817 5.947071 0.000010 9.226297 1.577101 3.188596 -2.428759 -1.832090 0.000002 16.253983 -0.165601 11.300211 5.778319 5.645278 0.000001 13.639592 -1.292302 10.424699 6.578442 5.979356 0.000001 13.877399 -4.354203 -3.459708 0.705814 0.494833 0.000009 4.339996 0.926898 0.000000 -0.000003 0.000000 0.000004 4.026608 0.858496 -1.125531 19.546726 -18.000554 0.000001 21.748825 0.000001 0.000001 -0.000001 -0.000000 3.005704 7.261826 7.955595 0.000001 -0.000001 -0.000000 -3.005695 7.261826 7.955594 0.000001 -0.000001 -0.000000 -0.000001 2.030289 2.456203 0.000001 -0.000001 -0.000000 6.144194 10.186972 -3.793197 -3.203750 -19.642430 -5.307719 -45.678891 -0.606487 -58.526313 -88.295693 25.127380 -83.086103 -30.447884 -3.669407 3.854659 2.421024 -1.395546 2.392365 0.699334 9.503617 -2.418279 3.496507 -2.018673 2.018718 5.975148 12.647539 1.348420 4.011407 -2.315968 2.315969 -23.873540 -17.664343 1.604724 2.095781 -1.210012 1.209987 0.000001 -0.000002 0.000002 10.514785 -0.231361 2.264849 9.479737 -1.289616 -20.785565 0.709568 2.796650 -28.467071 0.714078 2.804990 -28.559719 2.334345 0.000014 0.000009 0.000005 -0.000001 -0.000001 10.490763 -0.000004 0.000005 10.058211 -1.800415 -20.644733 1.774409 4.200795 -45.782034 1.632368 4.058105 -43.809479 2.752068 -0.000048 0.000018 0.000000 0.000002 -0.000000 10.240765 -0.046027 -2.314143 1.256444 -0.066876 -17.945583 3.744567 5.453191 -68.964229 5.298035 9.647988 -33.747610 0.000001 0.000001 -0.000001 9.820264 -0.209734 -4.418465 -7.938256 1.609120 -6.495673 2.210745 4.583965 -51.475215 0.883928 3.096302 -31.858045 -0.000001 -0.000000 -0.000001 -6.140204 10.187007 -3.793196 -1.863519 -4.604341 -0.490565 -13.056645 55.534544 43.557223 49.534253 124.808566 -57.698686 -3.507418 -6.545706 -6.833466 -9.791023 -0.212903 -4.378346 -17.635711 -10.496855 3.325319 4.994428 -4.645739 94.147908 3.647990 -4.547218 77.470676 0.000000 0.000001 0.000001 -10.391914 0.105165 -2.349893 -12.155610 -12.624066 9.228220 6.567913 -4.249048 114.232291 3.754924 -4.569725 78.826913 -0.000001 -0.000001 -0.000002 -10.779237 0.000008 -0.000007 3.764104 -12.080557 1.143659 5.715112 -4.536477 103.133480 3.160412 -4.411121 71.242070 -0.000000 -0.000000 -0.000000 -10.577326 -0.175348 2.287346 0.357658 -5.832720 5.175785 0.094410 -0.933784 11.539970 0.778278 -2.579722 33.567265 0.000001 0.000000 -0.000002 -2.570431 -1.245112 2.319035 13.942825 -4.273821 -5.299950 -3.518802 -2.031559 2.031556 7.113129 -20.767603 -2.619654 -3.945263 -2.277769 2.277759 -3.460501 -24.899369 -18.653805 -0.000002 0.000000 -0.000001 9.633794 -3.273307 0.000005 -49.026862 2.573528 11.951135 63.741900 -5.353930 -10.391978 -12.218922 4.528604 1.499981 -0.183301 -12.185706 8.282296 -9.715075 2.014757 1.408864 -0.000000 0.000001 -0.000000 -9.633806 -3.273288 0.000002 -6.568806 1.983311 -28.324806 56.501715 10.148226 -12.436959 -10.065083 4.655740 -6.063386 -0.183302 -12.185699 8.282305 -3.460933 -1.378606 1.776896 0.000002 -0.000001 -0.000001 
